<svg width="82" height="83" viewBox="0 0 82 83" fill="none"
  xmlns="http://www.w3.org/2000/svg">
  <style>
    path {
      fill: black;
    }

    @media (prefers-color-scheme: dark) {
        path {
          fill: white;
        }
      }
  </style>
  <path d="M41.012 0C63.9743 0.0731867 80.9627 18.3973 81.9508 38.9079C83.1035 62.8765 63.8554 82.0514 41.0394 82.0148C18.2784 81.9874 0 63.6815 0 40.8656C0 18.3424 18.3973 0.0182967 41.012 0ZM40.9571 80.2583C62.3642 80.3041 80.1851 63.0503 80.2492 41.0852C80.3132 19.614 63.0229 1.84796 41.1126 1.76563C19.5866 1.68329 1.81137 19.0377 1.75648 40.9571C1.70159 62.4008 19.0011 80.2126 40.9571 80.2583Z" />
  <path d="M71.2838 41.012C71.2198 57.7168 57.8449 71.2747 41.0028 71.2838C24.2522 71.2838 10.7401 57.8175 10.7401 41.012C10.7401 24.2705 24.179 10.7493 41.012 10.7493C57.7443 10.7402 71.2106 24.1882 71.2838 41.012ZM41.0028 70.5703C57.3875 70.4605 70.5428 57.4424 70.5428 41.012C70.5428 24.5541 57.3783 11.472 41.012 11.472C24.6182 11.472 11.4812 24.5907 11.472 41.0028C11.4629 57.3326 24.5267 70.4513 41.0028 70.5703Z" />
  <path d="M55.0638 11.9203C54.6521 11.7556 54.2771 11.6275 53.9294 11.4537C53.8196 11.3988 53.7465 11.225 53.7099 11.0878C53.536 10.3651 53.3805 9.6332 53.2159 8.90134C53.1884 8.79156 53.1518 8.68178 53.0146 8.5537C52.7767 9.13005 52.5114 9.70639 52.3193 10.301C52.1912 10.7036 52.0083 10.7584 51.6606 10.5755C51.4228 10.4474 51.1575 10.3651 50.8556 10.237C51.0477 9.76128 51.2307 9.29472 51.4136 8.8373C51.7704 7.94991 52.1363 7.06252 52.4748 6.16599C52.5663 5.93728 52.6487 5.88239 52.9048 5.95557C53.6001 6.14769 54.0118 6.49533 54.0849 7.27293C54.149 7.93161 54.3594 8.56285 54.6247 9.23068C54.9174 8.50796 55.2102 7.79439 55.5304 7.02593C55.9055 7.1723 56.2622 7.29123 56.6007 7.44675C56.6739 7.48335 56.738 7.67546 56.7014 7.7578C56.1799 9.13005 55.6402 10.484 55.0638 11.9203Z" />
  <path d="M30.5463 74.257C30.3359 74.998 30.1163 75.7299 29.8876 76.5258C29.4576 76.4069 29.0551 76.3062 28.5794 76.1782C28.6983 75.739 28.8081 75.3182 28.927 74.8974C29.2015 73.9185 29.4942 72.9396 29.7504 71.9516C29.8236 71.6589 29.9608 71.6497 30.2078 71.6955C30.8756 71.8053 31.3239 72.0706 31.4703 72.8299C31.5983 73.5068 31.9002 74.1472 32.2204 74.8151C32.4125 74.1564 32.6138 73.4977 32.7785 72.839C32.8517 72.5371 32.9797 72.4639 33.2542 72.5646C33.5561 72.6652 33.858 72.7475 34.2056 72.8573C33.7756 74.3851 33.364 75.8671 32.9248 77.404C32.4766 77.276 32.0741 77.1936 31.699 77.0381C31.5709 76.9832 31.4977 76.7545 31.4428 76.5898C31.1775 75.8214 30.9214 75.0438 30.6652 74.2662C30.6286 74.257 30.592 74.257 30.5463 74.257Z" />
  <path d="M61.0743 15.79C60.7083 15.4881 60.3973 15.2228 60.0314 14.9118C61.0468 13.7042 62.0531 12.5149 63.0778 11.2982C63.3888 11.5543 63.6907 11.7648 63.9285 12.0301C64.0475 12.1581 64.0932 12.4051 64.0749 12.5973C64.0109 13.4389 63.9011 14.2897 63.9103 15.1862C64.4226 14.5824 64.9349 13.9786 65.4838 13.3383C65.7765 13.5853 66.0693 13.8048 66.3254 14.0518C66.3895 14.1159 66.426 14.3263 66.3712 14.3903C65.4197 15.5339 64.4592 16.6774 63.4803 17.8301C63.1601 17.5648 62.8582 17.3452 62.6112 17.0891C62.5014 16.9793 62.4557 16.7689 62.4648 16.6042C62.5197 15.9089 62.602 15.2137 62.6752 14.5184C62.6935 14.3446 62.7027 14.1708 62.6203 13.9695C62.1263 14.555 61.6232 15.1496 61.0743 15.79Z" />
  <path d="M6.0562 53.8562C5.88238 53.408 5.736 53.0146 5.57133 52.5755C7.06251 52.0174 8.50795 51.4777 9.98998 50.9196C10.1546 51.3313 10.3193 51.6881 10.42 52.0632C10.4565 52.1912 10.3468 52.3742 10.2553 52.5023C9.77042 53.2158 9.26726 53.9203 8.81899 54.707C9.56001 54.4326 10.301 54.1581 11.0878 53.8654C11.2433 54.2405 11.3988 54.5972 11.5178 54.9723C11.536 55.0364 11.408 55.2102 11.3073 55.2468C9.94424 55.7682 8.58114 56.2714 7.16314 56.802C7.01677 56.4086 6.84295 56.0427 6.73317 55.6493C6.69658 55.5212 6.79721 55.3291 6.88869 55.201C7.36441 54.4966 7.85842 53.8105 8.28839 53.0237C7.57482 53.2982 6.8521 53.5635 6.0562 53.8562Z" />
  <path d="M37.5448 8.86472C36.9776 8.9745 36.511 9.09343 36.0536 9.14832C35.9164 9.16662 35.7151 9.04769 35.6145 8.92876C35.2302 8.48049 34.8826 8.00478 34.4892 7.51992C34.0867 7.99563 33.739 8.4256 33.9952 9.05684C34.1507 9.45021 33.9678 9.60573 33.5744 9.64233C33.2908 9.66062 33.0072 9.74296 32.6595 9.807C32.5315 9.19406 32.4125 8.59942 32.3028 8.01392C32.1472 7.23632 32.01 6.45871 31.8453 5.6811C31.763 5.29687 31.8088 5.06816 32.2753 5.05901C32.5589 5.04987 32.8425 4.95838 33.181 4.90349C33.2999 5.45239 33.4097 5.9647 33.5469 6.61423C33.8122 6.14767 34.0684 5.80003 34.2239 5.4158C34.4892 4.73882 34.9832 4.44608 35.6785 4.40948C35.9438 4.40033 36.2091 4.318 36.6025 4.24481C36.2 4.8669 35.8798 5.40665 35.5047 5.90981C35.276 6.22085 35.3034 6.41297 35.5687 6.67827C36.1359 7.25461 36.6665 7.86755 37.2063 8.46219C37.316 8.55368 37.3984 8.6726 37.5448 8.86472Z" />
  <path d="M25.9721 71.6955C26.5027 71.4576 27.0516 71.2289 27.5731 70.9636C27.8475 70.8172 28.0762 70.8264 28.3415 70.9636C28.7532 71.174 29.1832 71.357 29.6955 71.5949C28.9819 71.8784 28.3781 72.1437 27.7743 72.3542C27.4816 72.4548 27.4084 72.6012 27.445 72.8939C27.5639 73.7539 27.6554 74.6138 27.7652 75.4829C27.7743 75.6018 27.7835 75.7116 27.7926 75.922C27.262 75.6842 26.7863 75.4829 26.338 75.245C26.2466 75.1993 26.2008 74.998 26.1825 74.8608C26.1368 74.2753 26.1093 73.6898 26.0727 73.086C25.1945 73.1409 24.8194 73.6807 24.6273 74.4674C24.1424 74.2479 23.7216 74.0558 23.2642 73.8453C23.7582 72.7475 24.2431 71.6863 24.7279 70.6251C24.7462 70.5794 24.7737 70.5428 24.792 70.5062C25.2585 69.4907 25.2494 69.4999 26.2557 70.003C26.4936 70.122 26.5393 70.2409 26.4295 70.4605C26.2466 70.8447 26.0727 71.2289 25.8989 71.6131C25.9172 71.6406 25.9447 71.668 25.9721 71.6955Z" />
  <path d="M43.1161 73.4337C43.1801 74.0009 43.2259 74.5132 43.2991 75.1536C43.7107 74.5864 44.0675 74.1289 44.3877 73.6441C44.5798 73.3605 44.7994 73.2324 45.1379 73.2233C45.577 73.2233 46.007 73.1775 46.5742 73.1409C46.1076 73.7173 45.7234 74.2204 45.3025 74.6961C45.083 74.9432 45.0647 75.1261 45.2751 75.3914C45.8697 76.1599 46.4278 76.9558 47.0682 77.8249C46.4461 77.8798 45.9246 77.9347 45.4032 77.9438C45.3025 77.9438 45.1653 77.7791 45.0921 77.6602C44.7719 77.1845 44.47 76.6905 44.1499 76.169C43.6833 76.5807 43.3082 76.9741 43.4912 77.6236C43.6009 78.0078 43.4637 78.1908 43.0429 78.1634C42.741 78.1451 42.4391 78.2 42.1006 78.2274C42.0549 77.7608 42 77.3309 41.9634 76.8917C41.8811 75.8854 41.8079 74.8883 41.7164 73.8819C41.689 73.6075 41.7621 73.4794 42.0457 73.4794C42.3751 73.4794 42.7227 73.452 43.1161 73.4337Z" />
  <path d="M70.68 55.2559C70.8996 56.0152 71.1008 56.6556 71.2564 57.296C71.3204 57.5613 71.4393 57.6345 71.6955 57.6253C72.5646 57.5979 73.4337 57.5979 74.3028 57.5796C74.4308 57.5796 74.5589 57.5796 74.8059 57.5796C74.4857 58.1194 74.2296 58.5768 73.9368 59.0159C73.8819 59.0982 73.6624 59.1165 73.5252 59.1074C72.9488 59.0799 72.3725 59.0342 71.7687 58.9976C71.8327 59.638 71.9699 60.1777 72.6195 60.4064C72.9488 60.5254 73.0311 60.7175 72.7933 61.0285C72.6012 61.2847 72.4639 61.5683 72.2718 61.9068C70.8996 61.1017 69.5639 60.3149 68.1825 59.5099C68.4387 59.0708 68.6674 58.6865 68.9144 58.2566C69.4175 58.5402 69.875 58.8055 70.4422 59.1348C70.2043 58.4487 69.9847 57.8815 69.8292 57.296C69.7743 57.0764 69.8018 56.7928 69.9024 56.5824C70.1037 56.1616 70.3781 55.7682 70.68 55.2559Z" />
  <path d="M56.8843 72.6469C56.3995 72.8939 55.7682 73.0128 55.6036 73.3605C55.4663 73.6441 55.878 74.193 56.0518 74.623C56.1067 74.7602 56.1616 74.8974 56.2348 75.0712C55.8048 75.2725 55.3932 75.4646 54.9266 75.675C54.2679 74.2479 53.6184 72.839 52.9506 71.3753C53.408 71.1649 53.8105 70.9819 54.2679 70.7715C54.5058 71.2747 54.7345 71.7504 54.9815 72.2627C55.4663 72.0431 55.9146 71.8327 56.4086 71.604C56.1891 71.1008 55.9786 70.616 55.7499 70.0945C56.1799 69.8933 56.5916 69.7012 57.0673 69.4724C57.726 70.8996 58.3755 72.3176 59.0525 73.7813C58.5951 73.9917 58.1742 74.1838 57.726 74.3851C57.4332 73.7996 57.1771 73.2507 56.8843 72.6469Z" />
  <path d="M11.8562 55.6036C12.3137 56.4452 12.7894 57.2045 13.1462 58.0279C13.3017 58.3847 13.3108 58.9153 13.1645 59.2721C12.7436 60.3241 11.8288 60.8364 10.7584 61.0011C9.85276 61.1383 9.23982 60.5986 8.80985 59.8484C8.46221 59.2446 8.11457 58.6408 7.73949 57.973C9.10259 57.1862 10.4382 56.4178 11.8562 55.6036ZM11.6092 57.4424C10.8774 57.8632 10.1546 58.2749 9.39534 58.7049C9.63319 59.1074 9.75212 59.5465 10.2644 59.6106C10.7035 59.6654 11.719 59.1074 11.9203 58.6866C12.1398 58.22 11.902 57.8449 11.6092 57.4424Z" />
  <path d="M73.8545 56.3903C72.3816 56.3629 71.174 55.3017 71.2015 54.0484C71.2289 52.5663 72.281 51.3496 73.5343 51.377C75.0346 51.4045 76.2696 52.4748 76.2422 53.7282C76.1965 55.2376 75.1536 56.4086 73.8545 56.3903ZM75.0438 53.8562C74.998 53.7739 74.934 53.4812 74.7602 53.3805C74.3211 53.1335 73.8453 52.9231 73.3605 52.8133C72.9031 52.7127 72.6012 53.042 72.4456 53.4629C72.2993 53.8654 72.409 54.2405 72.7658 54.46C73.1043 54.6704 73.4886 54.8443 73.8819 54.9449C74.4857 55.1096 75.0255 54.6521 75.0438 53.8562Z" />
  <path d="M50.5994 7.03508C50.5994 8.62689 49.7212 9.66065 48.3764 9.6515C46.7663 9.64235 45.6776 8.72752 45.6776 7.36442C45.6776 5.80005 46.6473 4.65651 48.0013 4.70225C49.2729 4.7297 50.7458 5.38838 50.5994 7.03508ZM47.0865 7.44675C47.1322 8.04139 47.3884 8.38903 47.8915 8.50796C48.3855 8.61774 48.7972 8.38903 48.9802 7.84013C49.0991 7.50164 49.1814 7.13571 49.1906 6.76978C49.1997 6.28491 48.8887 5.95557 48.4404 5.87324C47.9556 5.78176 47.5988 5.94643 47.4067 6.40384C47.2603 6.73318 47.1871 7.09912 47.0865 7.44675Z" />
  <path d="M60.8456 67.4049C62.044 67.4049 63.2699 68.7223 63.279 70.0396C63.2882 71.2381 61.9068 72.5188 60.6169 72.5005C59.4093 72.4914 58.1925 71.1649 58.1834 69.8567C58.1834 68.6399 59.5191 67.4049 60.8456 67.4049ZM61.9617 70.4513C61.7878 69.6828 61.5042 69.1431 60.937 68.7863C60.5986 68.5759 60.2601 68.6491 59.9582 68.8686C59.6471 69.0882 59.4367 69.4358 59.5922 69.7743C59.8118 70.2409 60.1137 70.6892 60.4613 71.0734C60.7175 71.357 61.1292 71.3204 61.4311 71.0825C61.6598 70.8996 61.8153 70.6251 61.9617 70.4513Z" />
  <path d="M66.2614 66.3437C65.9869 66.5907 65.7857 66.7737 65.5387 67.0024C65.3191 66.7737 65.1087 66.5541 64.8617 66.2888C65.4289 65.7674 65.9595 65.2734 66.5267 64.7611C66.9475 65.2185 67.35 65.6302 67.716 66.0693C67.8074 66.1791 67.8349 66.3895 67.8166 66.5358C67.6428 67.6153 66.4626 68.8687 65.4014 69.1065C64.5415 69.2986 63.5443 68.8229 62.9131 67.9081C62.3367 67.0756 62.2636 66.1425 62.849 65.4014C63.2241 64.9166 63.709 64.4958 64.2121 64.139C64.7427 63.773 65.3282 63.8645 65.9503 64.2213C65.685 64.5781 65.4472 64.8983 65.1819 65.2093C65.127 65.2734 64.9898 65.31 64.9074 65.2825C64.4683 65.1727 64.1664 65.3923 63.9377 65.7125C63.6907 66.0601 63.6998 66.4626 63.9468 66.7828C64.2121 67.1305 64.5049 67.4781 64.8617 67.7068C65.4746 68.1094 66.5267 67.4598 66.4992 66.7371C66.4992 66.6365 66.3712 66.5175 66.2614 66.3437Z" />
  <path d="M9.54171 49.0534C9.58745 49.1174 9.60575 49.1448 9.6149 49.1723C9.91679 50.4347 9.91679 50.4348 8.67262 50.6909C8.05053 50.819 7.4193 50.9471 6.78806 51.0111C5.88238 51.1026 5.2237 50.6726 4.90351 49.831C4.80288 49.5657 4.72969 49.2729 4.6931 48.9893C4.50098 47.4524 5.05903 46.7205 6.59595 46.4644C7.27293 46.3454 7.94075 46.2082 8.60858 46.0618C8.90133 45.9978 9.0477 46.0618 9.09344 46.4003C9.24897 47.4158 9.26726 47.4158 8.2518 47.6354C7.6846 47.7543 7.1174 47.8549 6.55021 47.9738C5.95557 48.0928 5.69026 48.4404 5.80004 48.9527C5.90068 49.4467 6.27576 49.6663 6.84295 49.5565C7.59312 49.4101 8.33413 49.2638 9.0843 49.1174C9.23982 49.0808 9.40449 49.0716 9.54171 49.0534Z" />
  <path d="M21.4071 15.3326C20.4008 16.2108 19.4311 17.0616 18.3973 17.9582C17.3544 16.7689 16.3298 15.5888 15.2777 14.3903C16.2749 13.5212 17.2355 12.6887 18.2326 11.8196C18.4522 12.0758 18.6626 12.3045 18.8913 12.5698C18.2784 13.1096 17.6837 13.631 17.0525 14.1891C17.2172 14.3812 17.3635 14.5458 17.5374 14.7471C18.1046 14.2622 18.6535 13.7865 19.2481 13.2742C19.4677 13.5121 19.6598 13.7316 19.8976 13.9878C19.3213 14.491 18.7724 14.9758 18.1869 15.4881C18.3881 15.7168 18.5711 15.9364 18.7815 16.1834C19.4219 15.6345 20.044 15.1039 20.6844 14.5458C20.9497 14.8111 21.1601 15.0582 21.4071 15.3326Z" />
  <path d="M30.9397 8.23351C30.2261 8.49881 29.5491 8.75497 28.8355 9.02027C28.9362 9.31302 29.0277 9.56917 29.1374 9.88021C29.9242 9.59661 30.6835 9.33131 31.4977 9.03857C31.6075 9.31302 31.7356 9.55087 31.7905 9.80703C31.8088 9.89851 31.699 10.0906 31.5983 10.1272C30.4639 10.5572 29.3204 10.9597 28.1311 11.3897C27.5914 9.89851 27.0608 8.44392 26.5119 6.9436C27.756 6.48618 28.9362 6.05621 30.1803 5.60794C30.2993 5.91898 30.4091 6.20258 30.5463 6.55022C29.9425 6.76978 29.3753 6.98019 28.8081 7.1906C28.186 7.41931 28.186 7.41931 28.5428 8.07799C29.046 7.90417 29.5583 7.72121 30.0614 7.53824C30.6469 7.32783 30.6469 7.32783 30.8482 7.90417C30.8756 7.98651 30.8939 8.07799 30.9397 8.23351Z" />
  <path d="M24.8194 69.2986C24.6273 69.5914 24.4626 69.8475 24.2705 70.1403C23.5753 69.692 22.9166 69.2712 22.2213 68.832C22.0841 69.0333 21.956 69.2163 21.8005 69.4358C22.4317 69.8475 23.0355 70.25 23.685 70.68C23.5204 70.9453 23.3648 71.1923 23.1819 71.4851C22.5323 71.0734 21.9194 70.68 21.279 70.2683C21.1144 70.5153 20.9497 70.7532 20.7667 71.0276C21.4711 71.4942 22.1573 71.9425 22.88 72.409C22.6879 72.7018 22.5049 72.9762 22.2945 73.2964C21.1784 72.5737 20.0806 71.8693 18.9462 71.1283C19.8061 69.7926 20.6478 68.4936 21.5169 67.1579C22.633 67.8898 23.7033 68.5759 24.8194 69.2986Z" />
  <path d="M60.6626 11.7739C60.4796 12.0666 60.3333 12.3045 60.1594 12.579C59.5008 12.1947 58.8787 11.8196 58.2291 11.4354C58.0736 11.6824 57.9272 11.9111 57.7351 12.2039C58.4487 12.643 59.144 13.073 59.8941 13.5304C59.702 13.8414 59.5374 14.1159 59.3452 14.4361C58.2017 13.7499 57.0856 13.0821 55.9329 12.3868C56.7563 11.0146 57.5522 9.68808 58.3664 8.32498C59.4276 8.96537 60.4705 9.56001 61.4768 10.2004C61.8519 10.4382 61.4676 10.7035 61.367 10.9414C61.2572 11.1976 61.1017 11.1518 60.9005 11.0237C60.3241 10.6578 59.7386 10.3193 59.1074 9.95339C58.9702 10.1729 58.8695 10.3468 58.7231 10.5755C59.3727 10.9871 59.9948 11.3714 60.6626 11.7739Z" />
  <path d="M36.9044 76.4435C37.2429 76.4435 37.5448 76.4526 37.8467 76.4435C38.1028 76.4252 38.2217 76.5167 38.3132 76.7637C38.4779 77.1937 38.9079 77.3949 39.3104 77.2394C39.4568 77.1753 39.6397 77.0198 39.6672 76.8826C39.6855 76.7454 39.5665 76.5167 39.4385 76.4435C39.2006 76.2971 38.8987 76.2331 38.6334 76.1233C38.3224 75.9952 38.0113 75.8763 37.7277 75.7116C37.3069 75.4555 37.0782 75.0621 37.1331 74.5589C37.188 74.0466 37.4807 73.6715 37.9564 73.4977C38.7432 73.2141 39.5482 73.2507 40.3167 73.5984C40.829 73.8271 41.0303 74.2204 41.0394 74.8608C40.6643 74.8608 40.2893 74.8791 39.9142 74.8517C39.8135 74.8425 39.7312 74.6962 39.6306 74.6138C39.4568 74.4766 39.2921 74.2662 39.1091 74.2387C38.9353 74.2113 38.7249 74.3943 38.5328 74.4857C38.6609 74.623 38.7523 74.8242 38.9079 74.8883C39.3378 75.0804 39.8044 75.181 40.2252 75.3823C40.9662 75.7208 41.1766 76.1507 41.0852 76.9558C41.0211 77.4955 40.4814 78.0993 39.8593 78.1451C39.2189 78.1908 38.5511 78.1634 37.9198 78.0261C37.2246 77.8706 36.822 77.1754 36.9044 76.4435Z" />
  <path d="M68.5393 63.9835C69.2071 64.2213 69.628 64.1024 69.8109 63.6084C69.8658 63.4528 69.8567 63.1875 69.756 63.0778C69.6554 62.9771 69.381 62.9405 69.2346 63.0046C68.9876 63.1052 68.7772 63.3065 68.5485 63.4437C68.2191 63.6358 67.8989 63.8645 67.5513 63.9743C66.6456 64.267 65.7857 63.4986 65.9869 62.5655C66.179 61.6689 66.7371 61.0102 67.533 60.5711C67.9355 60.3424 68.4021 60.4247 68.9144 60.7449C68.704 61.0377 68.5119 61.3487 68.274 61.6232C68.1917 61.7147 67.9904 61.7604 67.844 61.7513C67.4872 61.7238 67.2494 61.8885 67.1213 62.1904C67.0756 62.3002 67.0939 62.5106 67.1671 62.5929C67.2402 62.6661 67.4598 62.6661 67.5604 62.6021C67.9447 62.3642 68.3014 62.0623 68.6857 61.8153C69.1339 61.5225 69.6097 61.3396 70.1494 61.5774C70.8904 61.9068 71.2381 62.7484 70.9453 63.5352C70.68 64.2396 70.2043 64.7977 69.5822 65.2093C69.0516 65.5661 68.4204 65.5112 67.7891 65.063C68.027 64.7062 68.274 64.3585 68.5393 63.9835Z" />
  <path d="M25.6428 8.79155C25.286 9.02025 24.9292 9.23982 24.5724 9.46852C24.5724 9.42278 24.5633 9.38619 24.5633 9.34045C24.2339 9.34045 23.8863 9.29471 23.5661 9.35874C23.4472 9.37704 23.3831 9.65149 23.3008 9.81616C23.4746 9.87105 23.6576 9.99913 23.8131 9.97168C24.2339 9.90764 24.6365 9.77042 25.0573 9.67894C25.8074 9.52341 26.4021 9.77042 26.704 10.3468C27.0242 10.9323 26.951 11.7556 26.3929 12.1856C25.8532 12.5973 25.2128 12.9449 24.5724 13.1553C23.9046 13.3749 23.3831 12.9723 22.9166 12.3777C23.2917 12.1398 23.621 11.9111 23.9778 11.719C24.051 11.6824 24.2156 11.7831 24.3163 11.8562C24.6914 12.1124 25.1488 12.1032 25.4232 11.7648C25.5238 11.6367 25.6062 11.3988 25.5513 11.2799C25.4873 11.1427 25.2494 11.0054 25.0939 11.0054C24.7645 11.0146 24.4352 11.1335 24.1059 11.1793C23.8406 11.225 23.5661 11.2616 23.2917 11.2707C22.7885 11.289 22.4134 11.0603 22.1756 10.6121C21.9377 10.1638 21.9743 9.70638 22.267 9.313C22.7793 8.61773 23.4929 8.22435 24.3437 8.10542C24.9109 8.03223 25.2494 8.2335 25.6428 8.79155Z" />
  <path d="M15.6711 63.6358C15.3143 63.2333 15.049 62.9588 14.8112 62.6661C14.7563 62.5929 14.7837 62.4465 14.7837 62.3367C14.7929 62.1721 14.8843 61.9982 14.8386 61.861C14.7471 61.5957 14.5824 61.2572 14.2348 61.3762C13.8597 61.5042 14.0427 61.8153 14.1525 62.0623C14.3263 62.4648 14.491 62.8765 14.6373 63.2882C14.8477 63.8828 14.7105 64.4134 14.2165 64.8068C13.7042 65.2185 13.1187 65.2733 12.5515 64.9623C11.7922 64.5506 11.2982 63.8919 11.042 63.0869C10.8408 62.474 11.0786 61.9251 11.5909 61.4402C11.8654 61.7512 12.1307 62.0257 12.3685 62.3367C12.4234 62.4099 12.3777 62.5837 12.3228 62.6935C12.1215 63.1143 12.1947 63.5535 12.579 63.773C12.7253 63.8554 12.9906 63.8828 13.1096 63.8096C13.2285 63.7273 13.32 63.462 13.2834 63.3156C13.1919 62.9497 13.0089 62.6112 12.8717 62.2544C12.5332 61.3487 12.6613 60.7175 13.2651 60.3424C13.8506 59.9765 14.5916 60.1594 15.2137 60.8273C15.6985 61.3579 16.1102 61.925 15.9638 62.6935C15.9181 62.9863 15.7992 63.2516 15.6711 63.6358Z" />
  <path d="M47.3792 77.77C47.4615 77.093 47.5256 76.4984 47.5988 75.9037C47.7177 74.9706 47.8458 74.0375 47.9647 73.0952C47.9647 73.0677 47.9556 73.022 47.9739 73.0037C48.0745 72.8939 48.1751 72.711 48.294 72.6927C48.7515 72.6378 49.337 72.1803 49.6388 72.5737C50.6086 73.8362 51.4502 75.1993 52.3742 76.5807C51.8893 76.6996 51.4685 76.8368 51.0477 76.8917C50.9379 76.91 50.7641 76.6996 50.6909 76.5624C50.5537 76.3062 50.4073 76.1965 50.1146 76.3154C49.959 76.3794 49.7944 76.4069 49.6297 76.4252C49.154 76.4984 48.7149 76.599 48.8064 77.2485C48.8155 77.3126 48.6783 77.4406 48.5776 77.4681C48.2209 77.5779 47.8458 77.6602 47.3792 77.77ZM49.9407 75.2908C49.6571 74.8059 49.4101 74.3759 49.154 73.9551C49.1174 73.9734 49.0808 73.9826 49.0442 74.0009C49.0076 74.504 48.971 75.0072 48.9344 75.5561C49.3095 75.4554 49.6023 75.3823 49.9407 75.2908Z" />
  <path d="M77.9621 47.2511C77.6236 47.0956 77.3766 46.995 77.1296 46.8761C75.9769 46.3546 74.8334 45.824 73.6807 45.3117C73.4337 45.2019 73.3513 45.0647 73.3605 44.7902C73.4245 43.5918 73.4154 43.5827 74.5589 43.235C75.675 42.8874 76.8003 42.558 77.9255 42.2195C78.0261 42.1921 78.1268 42.183 78.3097 42.1464C78.2731 42.6221 78.264 43.052 78.1908 43.482C78.1725 43.5826 77.9529 43.6833 77.8157 43.7107C77.5138 43.7748 77.3583 43.912 77.3766 44.2322C77.3857 44.4426 77.3674 44.6622 77.34 44.8726C77.2851 45.2751 77.3217 45.5861 77.8066 45.6868C77.8981 45.7051 78.0261 45.8972 78.0261 46.007C78.0444 46.382 77.9987 46.7663 77.9621 47.2511ZM76.2879 45.0921C76.3245 44.7262 76.3428 44.4426 76.3794 44.0675C75.8122 44.1956 75.3182 44.3054 74.8242 44.4151C74.8242 44.4517 74.8242 44.4792 74.8151 44.5158C75.2725 44.6896 75.7299 44.8726 76.2879 45.0921Z" />
  <path d="M18.2692 65.9686C17.885 65.6301 17.5374 65.3191 17.1531 64.9806C17.4184 64.6787 17.6471 64.4043 17.9124 64.1024C19.0377 65.0721 20.1263 66.0144 21.2699 67.0024C21.0229 67.2951 20.785 67.5696 20.5289 67.8806C20.1446 67.5604 19.7878 67.2677 19.3853 66.9383C18.6077 67.8257 17.8484 68.704 17.0616 69.6096C16.6866 69.2895 16.3481 68.9967 15.9638 68.6674C16.7232 67.7708 17.4733 66.8926 18.2692 65.9686Z" />
  <path d="M39.1274 5.28772C38.6243 5.28772 38.176 5.28772 37.6728 5.28772C37.6728 4.93094 37.6728 4.57415 37.6728 4.14418C39.0817 4.09844 40.518 4.0527 42 4.00696C42 4.38204 42 4.75712 42 5.1688C41.57 5.18709 41.1309 5.21454 40.6643 5.23283C40.6643 6.41297 40.6643 7.56566 40.6643 8.80983C40.2801 8.80983 39.8867 8.83728 39.5025 8.79154C39.4019 8.78239 39.2646 8.55368 39.2555 8.41646C39.2098 7.54736 39.1915 6.68742 39.1549 5.81833C39.1549 5.66281 39.1457 5.49814 39.1274 5.28772Z" />
  <path d="M76.2148 49.7029C76.3886 48.9619 76.5441 48.2575 76.7271 47.4981C77.029 47.5622 77.34 47.5713 77.5687 47.7085C77.6968 47.7817 77.7608 48.0836 77.7334 48.2666C77.6145 48.971 77.4406 49.6663 77.2851 50.3616C77.2119 50.6818 77.1387 51.0111 77.0473 51.3862C76.1599 51.2032 75.3091 51.0202 74.4491 50.8373C73.8819 50.7184 73.3239 50.572 72.7567 50.4622C72.528 50.4165 72.4639 50.3341 72.4914 50.0963C72.6469 48.9436 72.6378 48.9436 73.763 49.1814C74.5681 49.3553 75.3731 49.5199 76.2148 49.7029Z" />
  <path d="M8.77325 43.4729C7.76693 43.5095 6.79721 43.5644 5.82749 43.5735C5.45241 43.5827 5.32433 43.6924 5.35177 44.0767C5.38837 44.653 5.36092 45.2294 5.36092 45.8606C5.04073 45.8606 4.68395 45.8606 4.27227 45.8606C4.21738 44.6622 4.17164 43.4546 4.11675 42.2013C5.69941 42.1372 7.21803 42.064 8.7824 42C8.77325 42.5032 8.77325 42.9423 8.77325 43.4729Z" />
  <path d="M44.3969 8.90131C44.2871 8.92876 44.2596 8.94706 44.2322 8.94706C42.9514 8.93791 42.9423 8.93791 43.0246 7.68459C43.1069 6.52275 43.2259 5.36091 43.3265 4.12589C43.8114 4.17163 44.2688 4.20822 44.7811 4.25396C44.6622 5.82748 44.5341 7.3644 44.3969 8.90131Z" />
  <path d="M35.6876 77.8249C35.1845 77.7425 34.7454 77.6693 34.2514 77.587C34.4984 76.0409 34.7454 74.5132 34.9924 72.9305C35.4223 72.9945 35.8249 73.0311 36.2182 73.1226C36.3006 73.1409 36.4012 73.3605 36.3829 73.4794C36.1634 74.9066 35.9255 76.3245 35.6876 77.8249Z" />
  <path d="M21.1235 14.0884C20.9222 13.814 20.7484 13.567 20.5289 13.2742C21.0412 12.9174 21.5443 12.5606 22.0383 12.213C22.1115 12.2588 22.1573 12.2771 22.1756 12.3045C22.7153 12.9815 22.7153 12.9815 21.9926 13.4755C21.7273 13.6676 21.4528 13.8597 21.1235 14.0884Z" />
  <path d="M60.1777 67.0939C59.9307 67.2677 59.7203 67.4049 59.4733 67.5787C59.3178 67.35 59.1897 67.1579 59.025 66.9201C59.2629 66.7645 59.4825 66.6182 59.7295 66.4535C59.885 66.6639 60.0131 66.8469 60.1777 67.0939Z" />
  <path d="M59.0067 67.8989C58.778 68.0453 58.5859 68.1734 58.3481 68.3197C58.1925 68.091 58.0553 67.8989 57.9272 67.716C58.5402 67.0939 58.5768 67.103 59.0067 67.8989Z" />
  <path d="M33.8305 21.1418C34.5441 21.4986 34.8734 22.02 34.9924 22.6787C35.3492 24.5907 34.105 26.2283 32.1838 26.4936C29.8144 26.8229 28.5154 25.4415 27.9756 23.4472C27.3535 21.0961 29.0825 18.5803 31.4794 18.1869C34.7362 17.638 37.3252 18.8364 39.3836 21.3156C40.0331 22.1024 40.6277 22.9349 41.2681 23.7674C41.6524 23.3283 42.0091 22.8525 42.43 22.4592C43.6284 21.3614 44.7994 20.2087 46.0984 19.2298C48.0287 17.7844 50.2792 17.4459 52.6212 17.9033C55.5121 18.4705 57.8449 19.9342 59.3452 22.5141C61.184 25.6794 60.3333 29.9699 56.8843 31.7081C53.1427 33.5927 49.1723 30.7658 48.9985 27.2254C48.8795 24.8286 50.1603 22.9257 52.0998 22.2762C52.301 22.2122 52.5023 22.1573 52.7676 22.0749C52.7218 22.1847 52.7127 22.2488 52.6761 22.2762C51.5234 23.3008 51.1666 24.6731 51.0477 26.1276C50.9471 27.3901 50.9837 28.6343 51.6881 29.7504C52.2736 30.6744 53.1152 31.2599 54.2039 31.2416C55.3566 31.2233 56.2714 30.6744 56.7928 29.5857C57.3966 28.3415 57.5247 27.015 57.5156 25.6702C57.5156 24.1973 57.3417 22.7519 56.6007 21.4346C55.7865 19.9891 54.4875 19.2389 52.9231 18.8913C51.7704 18.626 50.5994 18.4979 49.4559 18.9096C48.3672 19.2938 47.5073 20.0349 46.6839 20.8125C44.717 22.6696 43.3539 24.9567 42.1738 27.3535C40.9296 29.8785 39.7678 32.4491 38.3956 34.9009C37.1331 37.1605 35.4498 39.1274 33.1627 40.6003C33.3182 40.646 33.4006 40.6918 33.4737 40.6918C37.1148 40.6918 40.765 40.7009 44.406 40.6918C45.4672 40.6918 46.5742 39.5574 46.5833 38.487C46.5833 38.0662 46.5742 37.6271 46.4735 37.2246C46.2631 36.4012 45.6319 35.9804 44.7628 36.017C43.729 36.0536 43.1527 36.4836 42.9606 37.3618C42.7959 38.1028 42.9789 38.7798 43.3357 39.4385C42.2196 39.2372 41.8628 38.0662 42.0915 37.1788C42.5214 35.4955 44.3786 35.0747 45.7142 35.5138C47.6171 36.1451 48.1934 38.487 46.8212 40.024C46.4918 40.399 46.0893 40.7009 45.7142 41.0303C46.0527 41.2956 46.4369 41.5517 46.7663 41.8811C47.6262 42.7593 47.8092 44.1499 47.2603 45.33C46.8303 46.2448 45.6959 46.8303 44.5066 46.7663C42.988 46.6748 42.0183 45.7142 42.0366 44.3237C42.0457 43.5095 42.4849 42.9423 43.2991 42.6495C43.1801 43.0795 43.0063 43.5186 42.9423 43.9669C42.8508 44.6622 42.9697 45.33 43.601 45.7508C44.2413 46.1716 44.9549 46.1808 45.6593 45.9155C45.8331 45.8515 45.9978 45.7051 46.135 45.577C46.7571 44.9732 46.8303 42.8782 46.0253 42.2379C45.3849 41.7256 44.7536 41.3779 43.8937 41.3871C40.5271 41.4237 37.1514 41.4054 33.7848 41.4054C33.6293 41.4054 33.4646 41.4145 33.3091 41.4237C33.2816 41.4694 33.2542 41.5151 33.2176 41.5609C33.3091 41.6066 33.4097 41.6432 33.492 41.7073C36.2457 43.6559 38.112 46.318 39.5757 49.2912C40.7009 51.5692 41.7164 53.902 42.9148 56.1433C44.095 58.3481 45.5038 60.4064 47.4981 62.0074C49.2089 63.3797 51.0843 63.5626 53.1518 63.1235C55.7499 62.5746 57.049 60.7449 57.3966 58.3115C57.6436 56.5641 57.6528 54.8168 57.1222 53.1061C56.6922 51.7155 55.7591 51.002 54.3868 50.9471C53.1518 50.9013 51.8436 51.7064 51.4228 52.9323C50.7092 55.0181 50.8647 57.0765 51.9717 59.0068C52.1729 59.3544 52.484 59.638 52.8408 60.0588C52.4748 59.9582 52.2187 59.9033 51.9717 59.8118C49.3918 58.8055 48.2117 55.7682 49.4193 53.161C50.3982 51.0477 52.0357 49.8218 54.4051 49.8676C56.8843 49.9133 58.6683 51.1575 59.702 53.4263C60.9096 56.0793 60.2418 59.4184 57.726 61.5774C56.1525 62.9222 54.3777 63.9103 52.3285 64.1847C49.9773 64.4958 47.6994 64.1481 45.7417 62.6386C44.1041 61.3853 42.5855 60.0039 41.2864 58.3298C40.7192 59.0708 40.152 59.8027 39.6031 60.5437C38.4047 62.1446 36.8769 63.2882 34.9283 63.7913C33.0987 64.267 31.2781 64.3128 29.668 63.1327C27.0608 61.2298 27.4816 57.8632 29.421 56.244C30.4731 55.3657 31.7264 55.3932 32.9706 55.814C34.599 56.3629 35.4772 58.22 34.8826 59.821C34.7088 60.3058 34.416 60.6992 33.858 60.9279C33.9403 60.5437 34.0227 60.2052 34.0775 59.8667C34.2605 58.8055 33.5744 57.3509 32.6504 56.802C32.1198 56.4818 31.6258 56.619 31.1592 56.9301C30.0706 57.6528 29.5583 59.2995 29.9608 60.7449C30.4731 62.5655 32.01 63.4071 33.9495 62.9863C36.1634 62.5106 37.3526 61.0285 38.1943 59.0433C39.1366 56.8112 38.67 54.7253 37.8649 52.6121C37.2337 50.9562 36.1634 49.5565 35.1387 48.1385C33.739 46.2082 32.1655 44.4243 30.281 42.9423C29.421 42.2653 28.4971 41.6981 27.4267 41.4603C26.3563 41.2224 25.3134 41.3505 24.362 41.9726C23.127 42.7776 23.2459 44.8177 23.9046 45.577C24.6639 46.4369 26.0545 46.2631 26.6857 45.1836C27.1705 44.3328 27.0974 43.4363 26.7223 42.5763C27.3169 42.6038 27.7286 42.988 27.8475 43.6559C28.2135 45.7691 26.3838 47.3335 24.3437 46.6382C22.6604 46.0619 21.8279 44.1773 22.5415 42.5123C22.6787 42.183 22.8708 41.8719 23.0629 41.5151C21.2424 41.5151 19.4677 41.4968 17.6929 41.5334C17.3086 41.5426 17.1623 41.9085 17.1348 42.2745C17.1165 42.6221 17.0982 42.9972 17.4642 43.2076C17.8118 43.4088 18.1137 43.2442 18.379 43.0246C18.5345 42.8874 18.6535 42.7044 18.7998 42.5398C18.9462 43.0704 18.5528 43.7656 17.9856 43.976C17.3818 44.1956 16.5402 43.8388 16.3115 43.2076C16.0645 42.5306 16.1377 41.8902 16.6225 41.323C16.6866 41.2407 16.7597 41.1675 16.8238 41.0943C16.1102 40.2893 15.973 39.4568 16.4213 38.7523C16.7232 38.2858 17.4184 38.0296 17.949 38.1943C18.4888 38.3681 18.8822 38.9811 18.8547 39.7129C18.7083 39.53 18.6077 39.3927 18.4979 39.2738C18.2235 38.9628 17.9033 38.7889 17.4825 38.9445C17.208 39.0542 17.0525 39.6214 17.1531 40.0606C17.2538 40.4631 17.5008 40.6918 17.9307 40.6918C18.7266 40.6918 19.5134 40.6918 20.3093 40.6918C21.2241 40.6918 22.1298 40.6918 22.9989 40.6918C22.7611 40.0331 22.45 39.4202 22.3128 38.7706C22.0841 37.682 22.7976 36.328 23.7948 35.7517C24.7645 35.1936 26.1734 35.2668 26.9876 35.9255C27.7835 36.5659 28.1403 38.0022 27.7194 38.8804C27.5273 39.2829 27.2346 39.5665 26.7406 39.6031C27.0333 38.9079 27.0882 38.2126 26.9144 37.5082C26.6491 36.4287 25.4507 35.7242 24.5358 36.1725C24.1699 36.3463 23.7674 36.7031 23.6393 37.069C23.0447 38.6792 23.5935 40.2984 25.6336 40.7192C27.0608 41.012 28.2775 40.5363 29.4393 39.8044C31.0586 38.7889 32.3759 37.4258 33.5927 35.9804C35.1113 34.1873 36.5567 32.3302 37.5814 30.1987C38.3224 28.6434 38.9902 26.9784 38.7249 25.2311C38.3773 22.9715 37.6362 20.8125 35.3675 19.6872C34.7637 19.3853 34.0775 19.2024 33.4097 19.1017C31.0677 18.7541 29.7687 20.7393 29.851 22.6055C29.8968 23.5387 30.1986 24.3712 30.8939 25.0207C31.6898 25.7709 32.5223 25.7251 33.2267 24.8835C34.0318 23.9229 34.3977 22.8617 33.9495 21.6175C33.8946 21.4711 33.8854 21.3614 33.8305 21.1418Z" />
</svg>